# xmcd
#
# Track frame offsets:
# 182
# 20507
# 42157
# 60382
# 82932
# 97957
# 115745
# 133982
# 155057
# 174015
# 191202
# 210382
# 233645
# 250507
# 265270
# 285457
# 306182
#
# Disc length: 4373 seconds
#
#
# Revision: 2
# Processed by: cddbd v1.5.2PL0 Copyright (c) Steve Scherf et al.
# Submitted via: FreeRIP 2.945 
#
DISCID=d9111311
DTITLE=Bruce Springsteen - Greatest Hits
DYEAR=1995
DGENRE=Rock
TTITLE0=Born To Run
TTITLE1=Thunder Road
TTITLE2=Badlands
TTITLE3=The River
TTITLE4=Hungry Heart
TTITLE5=Atlantic City
TTITLE6=Dancing In The Dark
TTITLE7=Born In The U.S.A
TTITLE8=My Hometown
TTITLE9=Glory Days
TTITLE10=Brilliant Disguise
TTITLE11=Human Touch
TTITLE12=Better Days
TTITLE13=Streets Of Philadelphia
TTITLE14=Secret Garden
TTITLE15=Blood Brothers
TTITLE16=This Hard Land
EXTD=
EXTT0=
EXTT1=
EXTT2=
EXTT3=
EXTT4=
EXTT5=
EXTT6=
EXTT7=
EXTT8=
EXTT9=
EXTT10=
EXTT11=
EXTT12=
EXTT13=
EXTT14=
EXTT15=
EXTT16=
PLAYORDER=
